<svg width="27" height="21" viewBox="0 0 27 21" fill="none" xmlns="http://www.w3.org/2000/svg">
<path d="M1.76956 20.6933C1.87578 20.9482 2.16852 21.0688 2.42342 20.9625L6.57718 19.2316C6.83208 19.1254 6.9526 18.8326 6.84638 18.5777C6.74016 18.3228 6.44742 18.2023 6.19253 18.3085L2.50029 19.8471L0.961658 16.1549C0.855437 15.9 0.562695 15.7795 0.307799 15.8857C0.0529034 15.9919 -0.0676219 16.2847 0.0385983 16.5396L1.76956 20.6933ZM2.23109 20.501L2.69343 20.6914C5.88898 12.9297 10.0503 7.15515 14.257 3.93003C18.4618 0.706259 22.6094 0.0865386 25.9498 2.3597L26.2311 1.94633L26.5124 1.53297C22.6775 -1.07672 18.0416 -0.231601 13.6485 3.13643C9.25723 6.5031 5.00618 12.4473 1.76874 20.3107L2.23109 20.501Z" fill="white"/>
</svg>
