<svg width="40" height="41" viewBox="0 0 40 41" fill="none" xmlns="http://www.w3.org/2000/svg">
<path d="M40 14.621C39.8263 16.3827 39.7394 17.9708 39.7394 19.3851C39.7394 20.6258 39.7767 21.6431 39.8511 22.4371H38.9949C38.7963 20.5265 38.5482 19.1122 38.2504 18.1941C37.9525 17.2512 37.4314 16.5688 36.6868 16.147C35.9423 15.7004 34.8007 15.4771 33.262 15.4771H31.2517V36.6551C31.2517 37.6972 31.351 38.454 31.5495 38.9255C31.7481 39.3969 32.0955 39.7195 32.5919 39.8932C33.0882 40.0669 33.8948 40.1785 35.0116 40.2282V40.9726C33.7211 40.8981 31.897 40.8609 29.5393 40.8609C27.0575 40.8609 25.221 40.8981 24.0297 40.9726V40.2282C25.1465 40.1785 25.9531 40.0669 26.4495 39.8932C26.9458 39.7195 27.2933 39.3969 27.4918 38.9255C27.6903 38.454 27.7896 37.6972 27.7896 36.6551V15.4771H25.7794C24.2407 15.4771 23.099 15.7004 22.3545 16.147C21.61 16.5688 21.0888 17.2512 20.791 18.1941C20.4932 19.1122 20.245 20.5265 20.0464 22.4371H19.1902C19.2647 21.6431 19.3019 20.6258 19.3019 19.3851C19.3019 17.9708 19.215 16.3827 19.0413 14.621C21.1012 14.6954 24.6005 14.7327 29.5393 14.7327C34.4532 14.7327 37.9401 14.6954 40 14.621Z" fill="#0B1D51"/>
<path d="M13.3672 0C19.1448 3.14168e-05 23.4703 1.45229 26.3428 4.35742C28.6293 6.64394 30.0043 9.76856 30.4707 13.7305C30.1661 13.7308 29.8556 13.7324 29.5391 13.7324C28.1096 13.7324 26.8021 13.7278 25.6162 13.7217C25.4235 11.4865 25.0294 9.57302 24.4326 7.98145C23.5513 5.59856 22.1152 3.81868 20.124 2.64355C18.1655 1.46849 15.5046 0.880859 12.1426 0.880859C11.131 0.880885 10.364 0.995249 9.8418 1.22363C9.35216 1.45213 9.00933 1.86068 8.81348 2.44824C8.61765 3.03574 8.51955 3.9169 8.51953 5.0918V29.5742C8.51955 30.7491 8.61766 31.6303 8.81348 32.2178C9.00933 32.8053 9.35216 33.2139 9.8418 33.4424C10.364 33.6708 11.1473 33.7851 12.1914 33.7852C15.6515 33.7852 18.378 33.1642 20.3691 31.9238C22.36 30.6509 23.7469 28.8068 24.5303 26.3916C25.3463 23.9761 25.7549 20.8906 25.7549 17.1367C25.7549 16.9145 25.7531 16.6948 25.75 16.4775H26.7891V28.9375C25.5957 30.377 24.1419 31.5694 22.4248 32.5117C19.781 33.9478 16.615 34.666 12.9268 34.666L10.0869 34.6172C8.25895 34.5519 6.91999 34.5195 6.07129 34.5195C3.39471 34.5195 1.37095 34.5681 0 34.666V33.6865C1.17502 33.6212 2.02361 33.4907 2.5459 33.2949C3.10077 33.0991 3.47601 32.7238 3.67188 32.1689C3.86773 31.614 3.96582 30.716 3.96582 29.4756V5.19043C3.96582 3.95002 3.86773 3.05199 3.67188 2.49707C3.476 1.94225 3.10076 1.56693 2.5459 1.37109C2.02361 1.17527 1.17501 1.04477 0 0.979492V0C1.1424 0.0979186 2.72541 0.146478 4.74902 0.146484L8.91113 0.0976562C11.1308 0.0323726 12.6164 0 13.3672 0ZM27.79 15.4775V27.5781L27.7891 27.5801V15.4775H27.79Z" fill="#0B1D51"/>
</svg>
