<svg width="65" height="65" viewBox="0 0 65 65" fill="none" xmlns="http://www.w3.org/2000/svg">
<circle cx="32.5" cy="32.5" r="32" stroke="#0B1D51"/>
<path d="M52 26.621C51.8263 28.3827 51.7394 29.9708 51.7394 31.3851C51.7394 32.6258 51.7767 33.6431 51.8511 34.4371H50.9949C50.7963 32.5265 50.5482 31.1122 50.2504 30.1941C49.9525 29.2512 49.4314 28.5688 48.6868 28.147C47.9423 27.7004 46.8007 27.4771 45.262 27.4771H43.2517V48.6551C43.2517 49.6972 43.351 50.454 43.5495 50.9255C43.7481 51.3969 44.0955 51.7195 44.5919 51.8932C45.0882 52.0669 45.8948 52.1785 47.0116 52.2282V52.9725C45.7211 52.8981 43.897 52.8609 41.5393 52.8609C39.0575 52.8609 37.221 52.8981 36.0297 52.9725V52.2282C37.1465 52.1785 37.9531 52.0669 38.4495 51.8932C38.9458 51.7195 39.2933 51.3969 39.4918 50.9255C39.6903 50.454 39.7896 49.6972 39.7896 48.6551V27.4771H37.7794C36.2407 27.4771 35.099 27.7004 34.3545 28.147C33.61 28.5688 33.0888 29.2512 32.791 30.1941C32.4932 31.1122 32.245 32.5265 32.0464 34.4371H31.1902C31.2647 33.6431 31.3019 32.6258 31.3019 31.3851C31.3019 29.9708 31.215 28.3827 31.0413 26.621C33.1012 26.6954 36.6005 26.7327 41.5393 26.7327C46.4532 26.7327 49.9401 26.6954 52 26.621Z" fill="#0B1D51"/>
<path d="M25.3672 12C31.1448 12 35.4703 13.4523 38.3428 16.3574C40.6293 18.6439 42.0043 21.7686 42.4707 25.7305C42.1661 25.7308 41.8556 25.7324 41.5391 25.7324C40.1096 25.7324 38.8021 25.7278 37.6162 25.7217C37.4235 23.4865 37.0294 21.573 36.4326 19.9814C35.5513 17.5986 34.1152 15.8187 32.124 14.6436C30.1655 13.4685 27.5046 12.8809 24.1426 12.8809C23.131 12.8809 22.364 12.9952 21.8418 13.2236C21.3522 13.4521 21.0093 13.8607 20.8135 14.4482C20.6177 15.0357 20.5196 15.9169 20.5195 17.0918V41.5742C20.5196 42.7491 20.6177 43.6303 20.8135 44.2178C21.0093 44.8053 21.3522 45.2139 21.8418 45.4424C22.364 45.6708 23.1473 45.7851 24.1914 45.7852C27.6515 45.7852 30.378 45.1642 32.3691 43.9238C34.36 42.6509 35.7469 40.8068 36.5303 38.3916C37.3463 35.9761 37.7549 32.8906 37.7549 29.1367C37.7549 28.9145 37.7531 28.6948 37.75 28.4775H38.7891V40.9375C37.5957 42.377 36.1419 43.5694 34.4248 44.5117C31.781 45.9478 28.615 46.666 24.9268 46.666L22.0869 46.6172C20.2589 46.5519 18.92 46.5195 18.0713 46.5195C15.3947 46.5195 13.3709 46.5681 12 46.666V45.6865C13.175 45.6212 14.0236 45.4907 14.5459 45.2949C15.1008 45.0991 15.476 44.7238 15.6719 44.1689C15.8677 43.614 15.9658 42.716 15.9658 41.4756V17.1904C15.9658 15.95 15.8677 15.052 15.6719 14.4971C15.476 13.9422 15.1008 13.5669 14.5459 13.3711C14.0236 13.1753 13.175 13.0448 12 12.9795V12C13.1424 12.0979 14.7254 12.1465 16.749 12.1465L20.9111 12.0977C23.1308 12.0324 24.6164 12 25.3672 12ZM39.79 27.4775V39.5781L39.7891 39.5801V27.4775H39.79Z" fill="#0B1D51"/>
</svg>
