<svg width="80" height="38" viewBox="0 0 80 38" fill="none" xmlns="http://www.w3.org/2000/svg">
<path d="M42.112 25.4649C37.296 28.1291 30.9147 29.5957 24.128 29.5957C13.16 29.5957 3.52269 25.7461 2.28882e-05 20.0024C2.28882e-05 20.4368 2.28882e-05 23.2571 2.28882e-05 23.2571C2.28882e-05 30.3009 10.824 36.0332 24.128 36.0332C33.1947 36.0332 41.4 33.3717 45.5734 29.0852C44.312 27.9316 43.1507 26.7128 42.112 25.4649Z" fill="#0B1D51"/>
<path d="M43.4387 7.80917L42.8653 8.24091L42.36 8.69718C42.824 11.7889 44.6173 15.3488 47.412 18.7488C47.9613 17.6717 48.2547 16.5624 48.2547 15.4529C48.2547 12.6742 46.588 10.0332 43.4387 7.80917Z" fill="#0B1D51"/>
<path d="M1.58002 19.9676C3.01069 13.7436 12.644 9.07172 24.128 9.07172C28.624 9.07172 32.968 9.79572 36.704 11.1639C36.9227 9.92905 37.3734 8.82479 38.0654 7.88212C38.0654 7.88212 39.5574 5.84879 39.6667 5.69986C35.3174 3.75186 29.8054 2.67425 24.128 2.67425C10.824 2.67425 2.28882e-05 8.40505 2.28882e-05 15.4529C2.28882e-05 16.9999 0.538686 18.5196 1.58002 19.9676Z" fill="#0B1D51"/>
<path d="M51.3654 24.6529C44.8641 19.2461 40.8534 12.5275 40.8534 7.15813C40.8534 6.88213 40.8747 6.61186 40.8974 6.34093C40.6401 6.68626 39.1694 8.68893 39.1694 8.68893C38.3027 9.87693 37.8867 11.3223 37.8867 12.9316C37.8867 17.7128 41.5414 23.9581 47.7921 29.2103C47.7547 28.9889 47.7174 28.7676 47.7174 28.5461C47.7174 27.7155 47.9774 26.9035 48.4734 26.2291C49.1587 25.2931 50.2094 24.7368 51.3654 24.6529Z" fill="#0B1D51"/>
<path d="M76.0587 32.1316C70.9507 34.2051 62.9173 32.4624 55.4413 27.6452C55.5133 27.9504 55.5707 28.2597 55.5707 28.5676C55.5707 29.3904 55.3107 30.1972 54.8093 30.8743C54.1813 31.7343 53.2253 32.2811 52.168 32.4237C61.3787 38.2889 70.884 39.1837 74.3293 34.4889C74.3293 34.4889 75.8067 32.4785 76.0587 32.1316Z" fill="#0B1D51"/>
<path d="M79.784 24.5702C79.784 19.2212 75.2107 12.065 67.7534 6.5931C58.0574 -0.518899 47.1107 -2.1309 43.3454 3.00243C42.5187 4.1291 42.0974 5.51964 42.08 7.1291C46.456 3.3639 55.9707 5.1035 64.34 11.2436C71.2547 16.3171 75.5507 23.0436 75.5507 28.2186C75.5507 29.3067 75.3427 30.3196 74.948 31.241C76.4774 30.741 77.6787 29.9238 78.5067 28.7958C79.3747 27.6119 79.784 26.1718 79.784 24.5702Z" fill="#0B1D51"/>
<path d="M54.2867 28.1452C54.1787 27.4368 53.8027 26.817 53.2267 26.3957C52.6494 25.9733 51.9427 25.7982 51.2361 25.9076C50.5281 26.017 49.9067 26.393 49.4854 26.9676C49.0627 27.5436 48.8907 28.2518 48.9974 28.9581C49.1081 29.6665 49.4841 30.2889 50.0601 30.7076C51.2481 31.5821 52.9281 31.3248 53.8027 30.1342C54.2241 29.5597 54.3961 28.8529 54.2867 28.1452Z" fill="#0B1D51"/>
</svg>
